<svg width="512" height="512" viewBox="0 0 512 512" fill="none" xmlns="http://www.w3.org/2000/svg">
<path d="M512 256C512 397.385 397.385 512 256 512C114.615 512 0 397.385 0 256C0 114.615 114.615 0 256 0C397.385 0 512 114.615 512 256Z" fill="url(#paint0_linear_1320_27)"/>
<path fill-rule="evenodd" clip-rule="evenodd" d="M106 180.85C106 139.45 139.6 106 181 106H331C372.4 106 406 139.45 406 180.85V285.55C406 326.8 372.4 360.25 331 360.25H308.5C303.85 360.25 299.35 362.5 296.5 366.25L274 396.1C264.1 409.3 247.9 409.3 238 396.1L215.5 366.25C213.1 362.95 207.7 360.25 203.5 360.25H181C139.6 360.25 106 326.8 106 285.55V180.85ZM331 207.25H181C174.85 207.25 169.75 202.15 169.75 196C169.75 189.85 174.85 184.75 181 184.75H331C337.15 184.75 342.25 189.85 342.25 196C342.25 202.15 337.15 207.25 331 207.25ZM181 282.25H271C277.15 282.25 282.25 277.15 282.25 271C282.25 264.85 277.15 259.75 271 259.75H181C174.85 259.75 169.75 264.85 169.75 271C169.75 277.15 174.85 282.25 181 282.25Z" fill="white"/>
<defs>
<linearGradient id="paint0_linear_1320_27" x1="0" y1="0" x2="512" y2="512" gradientUnits="userSpaceOnUse">
<stop stop-color="#EF4444"/>
<stop offset="0.390625" stop-color="#DB2777"/>
<stop offset="0.947917" stop-color="#8B5CF6"/>
</linearGradient>
</defs>
</svg>
